<svg xmlns="http://www.w3.org/2000/svg" viewBox="70.27 22.2 373.39 466.88" style="fill:black; background-color: transparent;fill-opacity:1; width:1em; vertical-align: calc(-1em*0.25038164);" >
	<path d="M330.313 292.203c-12.614-2.5-25.333-15.836-28.231-29.61-3.035-14.429 5.39-29.538 20.684-37.097 5.808-2.871 6.3-2.973 14.324-2.973 7.84 0 8.62.153 13.734 2.649 6.942 3.394 14.797 11.094 17.63 17.277 2.429 5.301 3.202 14.094 1.827 20.719-3.039 14.644-14.953 26.332-29.55 29-5.211.953-5.766.953-10.418.035Zm0 0"/>
	<path d="M246.34 488.3c-8.004-1.882-16.52-9.1-20.66-17.5-2.41-4.902-2.903-6.898-3.625-14.726-.59-6.41-1.278-9.773-2.344-11.508-1.836-2.976-7.45-6.046-20.031-10.953-51.43-20.058-88.453-52.16-109.211-94.687-9.04-18.528-13.781-32.781-17.11-51.418-5.707-31.98-3.671-57.078 7.403-91.34 9.867-30.523 24.82-53.852 48.718-76.016 20.434-18.945 36.454-28.945 64.293-40.136 18.528-7.446 24.907-10.594 25.903-12.79.492-1.074 1.605-6.445 2.476-11.94 2.332-14.677 3.305-17.47 7.79-22.376 7.285-7.972 16.546-11.297 29.601-10.625 17.965.922 26.855 7.395 30.598 22.274.644 2.57 1.578 7.832 2.074 11.695.496 3.86 1.422 8.031 2.062 9.27 1.899 3.671 6.567 6.406 20.555 12.035 32.45 13.058 48.543 22.78 67.773 40.937 28.36 26.777 47.536 57.856 55.797 90.442 6.286 24.785 6.977 55.55 1.844 82.273-7.875 41.004-29.984 78.906-61.625 105.644-19.988 16.891-30.656 23.102-60.898 35.47-22.137 9.046-21.477 8.722-22.782 11.241-.613 1.184-1.656 5.813-2.32 10.286-1.437 9.675-2.992 15.378-5.605 20.527-2.227 4.402-7.02 9.324-10.836 11.137-6.582 3.125-22.211 4.582-29.84 2.785Zm-32.145-114.113c.774-.417 2.192-2.57 3.14-4.78 1.43-3.321 1.872-6.536 2.536-18.348.969-17.282 1.348-201.461.43-207.895l-.649-4.531h-4.91c-12.152 0-28.3 9.808-46.898 28.48-15.711 15.774-24.637 29.903-30.793 48.742-4.48 13.708-6.164 32.024-4.738 51.583 1.003 13.843 1.847 19.253 4.16 26.765 2.468 8.012 11.593 25.676 17.488 33.86 13.273 18.421 32.23 34.66 51.191 43.847 6.88 3.332 7.008 3.363 9.043 2.277Zm89.907-1.28c5.171-1.505 18.265-8.302 24.757-12.848 22.446-15.72 40.297-39.77 48.883-65.856 2.64-8.023 2.91-9.746 3.645-23.238.965-17.684.406-36.82-1.32-45.16-2.919-14.09-10.11-29.887-19.005-41.735-14.183-18.902-40.105-40.476-54.667-45.5-5.926-2.047-8.735-1.703-10.075 1.23-3.39 7.45-4.394 41.364-3.836 129.985.45 71.707 1.313 101.277 3.028 103.34 1.125 1.355 3.386 1.3 8.59-.219Zm0 0"/>
	<path d="M168.96 291.273c-7.706-2.734-20.398-14.25-23.823-21.617-1.801-3.875-2.137-5.652-2.125-11.293.02-15.039 7.629-26.043 23.054-33.351 4.72-2.23 5.985-2.485 12.348-2.457 6.047.027 7.723.343 11.418 2.148 9.652 4.707 18.672 14.195 22.078 23.23 1.363 3.606 1.637 5.68 1.356 10.239-.84 13.621-12.88 28.281-26.766 32.605-5.145 1.602-13.738 1.844-17.54.496Zm0 0"/>
</svg>
