<?xml version="1.0" encoding="UTF-8" standalone="no"?>
<!DOCTYPE svg PUBLIC "-//W3C//DTD SVG 1.1//EN" "http://www.w3.org/Graphics/SVG/1.1/DTD/svg11.dtd">
<!-- Created with Vectornator (http://vectornator.io/) -->
<svg height="100%" stroke-miterlimit="10" style="fill-rule:nonzero;clip-rule:evenodd;stroke-linecap:round;stroke-linejoin:round;" version="1.1" viewBox="0 0 268.621 296.124" width="100%" xml:space="preserve" xmlns="http://www.w3.org/2000/svg" xmlns:vectornator="http://vectornator.io" xmlns:xlink="http://www.w3.org/1999/xlink">
<defs/>
<g id="Untitled" vectornator:layerName="Untitled">
<path d="M179.809 169.316C172.17 167.805 164.468 159.728 162.715 151.39C160.877 142.653 165.978 133.505 175.239 128.928C178.755 127.19 179.053 127.128 183.912 127.128C188.657 127.128 189.133 127.22 192.228 128.733C196.431 130.787 201.188 135.449 202.902 139.193C204.371 142.403 204.841 147.725 204.008 151.736C202.167 160.603 194.955 167.681 186.115 169.296C182.961 169.872 182.624 169.873 179.809 169.316C179.809 169.316 179.809 169.316 179.809 169.316Z" fill="#000000" fill-rule="nonzero" opacity="1" stroke="none" vectornator:layerName="path"/>
<path d="M128.964 288.048C124.12 286.906 118.962 282.536 116.458 277.451C114.997 274.486 114.699 273.276 114.262 268.536C113.904 264.655 113.489 262.618 112.842 261.569C111.731 259.767 108.332 257.908 100.714 254.937C69.5735 242.792 47.1581 223.356 34.5914 197.605C29.1176 186.389 26.2456 177.759 24.2313 166.474C20.7752 147.113 22.0068 131.916 28.7135 111.171C34.6881 92.6894 43.7397 78.5668 58.2116 65.1468C70.5826 53.6749 80.2816 47.6198 97.1372 40.8451C108.356 36.336 112.217 34.4299 112.822 33.1013C113.118 32.4523 113.792 29.1986 114.321 25.8709C115.732 16.985 116.321 15.2948 119.036 12.3237C123.449 7.49578 129.054 5.48334 136.96 5.88904C147.837 6.44718 153.22 10.3668 155.485 19.3776C155.876 20.9327 156.441 24.1181 156.741 26.4563C157.041 28.7945 157.603 31.3204 157.99 32.0695C159.14 34.2929 161.965 35.947 170.436 39.3564C190.081 47.2631 199.827 53.1503 211.47 64.1435C228.641 80.3565 240.25 99.1725 245.253 118.904C249.058 133.909 249.476 152.536 246.369 168.715C241.602 193.543 228.216 216.493 209.057 232.682C196.955 242.909 190.498 246.669 172.184 254.156C158.782 259.634 159.181 259.437 158.392 260.963C158.021 261.68 157.389 264.482 156.987 267.19C156.117 273.05 155.175 276.501 153.594 279.62C152.244 282.285 149.343 285.265 147.033 286.362C143.046 288.253 133.584 289.136 128.964 288.048L128.964 288.048ZM109.502 218.955C109.972 218.703 110.829 217.401 111.405 216.061C112.27 214.051 112.538 212.105 112.939 204.953C113.526 194.49 113.756 82.9744 113.199 79.0782L112.807 76.3359L109.834 76.3359C102.477 76.3359 92.6979 82.2741 81.4373 93.5792C71.9254 103.129 66.5211 111.683 62.7931 123.091C60.0813 131.39 59.0627 142.479 59.9242 154.324C60.5336 162.703 61.0434 165.98 62.4445 170.528C63.9386 175.378 69.4627 186.073 73.0327 191.028C81.0698 202.183 92.5478 212.015 104.027 217.577C108.193 219.595 108.27 219.614 109.502 218.955C109.502 218.955 109.502 218.955 109.502 218.955ZM163.939 218.181C167.07 217.269 174.997 213.155 178.929 210.401C192.519 200.884 203.327 186.323 208.524 170.528C210.123 165.671 210.286 164.628 210.732 156.459C211.317 145.751 210.978 134.164 209.933 129.115C208.166 120.584 203.811 111.019 198.427 103.845C189.839 92.4021 174.143 79.3389 165.328 76.2965C161.738 75.0577 160.037 75.266 159.228 77.0434C157.173 81.5526 156.566 102.085 156.903 155.744C157.175 199.159 157.7 217.063 158.737 218.313C159.418 219.134 160.789 219.099 163.939 218.181L163.939 218.181Z" fill="#000000" fill-rule="nonzero" opacity="1" stroke="none" vectornator:layerName="path"/>
<path d="M82.1141 168.753C77.4479 167.098 69.7627 160.125 67.6905 155.667C66.6001 153.321 66.3973 152.243 66.4025 148.828C66.4166 139.724 71.0233 133.06 80.3626 128.636C83.2177 127.283 83.9862 127.13 87.8372 127.148C91.5002 127.164 92.5141 127.355 94.7526 128.447C100.596 131.299 106.056 137.043 108.12 142.512C108.945 144.696 109.111 145.952 108.94 148.711C108.43 156.959 101.143 165.836 92.7328 168.454C89.6197 169.423 84.4153 169.569 82.1141 168.753Z" fill="#000000" fill-rule="nonzero" opacity="1" stroke="none" vectornator:layerName="path"/>
</g>
</svg>
